<?xml version="1.0" encoding="UTF-8"?>
<svg version="1.1" xmlns="http://www.w3.org/2000/svg" width="500" height="500">
<path d="M0 0 C165 0 330 0 500 0 C500 165 500 330 500 500 C335 500 170 500 0 500 C0 335 0 170 0 0 Z " fill="#FEFEFE" transform="translate(0,0)"/>
<path d="M0 0 C1.31857548 2.63715096 1.11991704 4.5983264 1.11352539 7.55126953 C1.11344986 8.71232208 1.11337433 9.87337463 1.11329651 11.0696106 C1.10813522 12.32796722 1.10297394 13.58632385 1.09765625 14.8828125 C1.09553383 16.80962357 1.09553383 16.80962357 1.09336853 18.77536011 C1.08954911 22.19156842 1.07972373 25.60773426 1.06866455 29.02392578 C1.05843807 32.50943426 1.05386826 35.9949496 1.04882812 39.48046875 C1.03810096 46.32032995 1.02103142 53.16016294 1 60 C1.804375 59.979375 2.60875 59.95875 3.4375 59.9375 C6 60 6 60 7 61 C7.1245486 62.64230364 7.17568524 64.29052276 7.1875 65.9375 C7.20167969 66.83339844 7.21585938 67.72929687 7.23046875 68.65234375 C7 71 7 71 5 73 C3.68 73 2.36 73 1 73 C1 75.64 1 78.28 1 81 C2.65 81.33 4.3 81.66 6 82 C6.05391993 83.79133978 6.09275571 85.58313899 6.125 87.375 C6.14820313 88.37273437 6.17140625 89.37046875 6.1953125 90.3984375 C6 93 6 93 4 95 C3.01 95 2.02 95 1 95 C1 97.97 1 100.94 1 104 C1.804375 103.979375 2.60875 103.95875 3.4375 103.9375 C6 104 6 104 7 105 C7.09873816 106.99799572 7.12971799 108.99957158 7.125 111 C7.12757813 112.093125 7.13015625 113.18625 7.1328125 114.3125 C7 117 7 117 6 118 C4.33382885 118.04063832 2.66611905 118.042721 1 118 C1.02356567 119.97577026 1.02356567 119.97577026 1.04760742 121.99145508 C1.10185386 126.87225239 1.1363309 131.753023 1.16479492 136.6340332 C1.1798936 138.74768554 1.20037426 140.86130648 1.22631836 142.97485352 C1.26265397 146.01065815 1.27971544 149.04604906 1.29296875 152.08203125 C1.30845261 153.02899368 1.32393646 153.97595612 1.33988953 154.95161438 C1.34022942 156.27264412 1.34022942 156.27264412 1.34057617 157.62036133 C1.35056892 158.78285149 1.35056892 158.78285149 1.36076355 159.96882629 C0.90028325 162.561426 0.09200695 163.43949542 -2 165 C-5.0625 165.3125 -5.0625 165.3125 -8 165 C-10 163 -10 163 -10.24050903 161.05111694 C-10.23606781 160.256138 -10.23162659 159.46115906 -10.22705078 158.64208984 C-10.22682419 157.29091568 -10.22682419 157.29091568 -10.22659302 155.91244507 C-10.21627045 154.93844757 -10.20594788 153.96445007 -10.1953125 152.9609375 C-10.1924826 151.96494537 -10.18965271 150.96895325 -10.18673706 149.94277954 C-10.1755184 146.75339882 -10.15041081 143.56429622 -10.125 140.375 C-10.11497238 138.21614988 -10.10584615 136.05729537 -10.09765625 133.8984375 C-10.07557356 128.59885074 -10.04103225 123.29947256 -10 118 C-14.62 118 -19.24 118 -24 118 C-24.44988281 118.94359375 -24.89976562 119.8871875 -25.36328125 120.859375 C-30.04646192 130.33487827 -35.45286193 137.63149242 -43 145 C-43.96679688 145.99773437 -43.96679688 145.99773437 -44.953125 147.015625 C-60.41729278 161.94190868 -81.69433145 165.66336457 -102.30859375 165.3359375 C-121.02691837 164.57780619 -137.80794132 154.89223917 -151 142 C-157.19886211 135.02628013 -161.49494077 127.56804814 -165.296875 119.12890625 C-166.86476041 115.88699396 -166.86476041 115.88699396 -169.578125 113.46484375 C-174.12468791 108.83761601 -174.31588387 103.44676618 -174.3359375 97.22265625 C-174.3425943 96.49308212 -174.3492511 95.763508 -174.35610962 95.01182556 C-174.36618569 93.47641503 -174.37092821 91.94096114 -174.37060547 90.40551758 C-174.37498155 88.07233821 -174.41135825 85.74104896 -174.44921875 83.40820312 C-174.45508772 81.90886056 -174.45905658 80.40950912 -174.4609375 78.91015625 C-174.47530853 78.22139908 -174.48967957 77.53264191 -174.50448608 76.82301331 C-174.44509449 70.44483255 -172.09934771 66.50567308 -168.0625 61.6875 C-166.19188383 59.25003045 -165.04892764 57.13359215 -163.75 54.375 C-154.46543943 35.29480214 -138.03247715 22.17374195 -118.1875 15.1875 C-100.82279401 9.46858485 -79.27901794 11.16798359 -63 19 C-62.00484375 19.44472656 -61.0096875 19.88945312 -59.984375 20.34765625 C-42.7892286 28.77327799 -32.03134698 43.6216087 -23 60 C-22.67 59.67 -22.34 59.34 -22 59 C-18.66672158 58.8575522 -15.33546107 58.95777897 -12 59 C-12.21148682 58.35095703 -12.42297363 57.70191406 -12.64086914 57.03320312 C-14.84383158 49.74474036 -15.48872247 43.09023862 -15.4375 35.5 C-15.45748047 34.44941406 -15.47746094 33.39882812 -15.49804688 32.31640625 C-15.49116405 21.18000065 -11.77659265 9.90110269 -4.53515625 1.25 C-3 0 -3 0 0 0 Z " fill="#EA630A" transform="translate(349,172)"/>
<path d="M0 0 C1.31857548 2.63715096 1.11991704 4.5983264 1.11352539 7.55126953 C1.11344986 8.71232208 1.11337433 9.87337463 1.11329651 11.0696106 C1.10813522 12.32796722 1.10297394 13.58632385 1.09765625 14.8828125 C1.09553383 16.80962357 1.09553383 16.80962357 1.09336853 18.77536011 C1.08954911 22.19156842 1.07972373 25.60773426 1.06866455 29.02392578 C1.05843807 32.50943426 1.05386826 35.9949496 1.04882812 39.48046875 C1.03810096 46.32032995 1.02103142 53.16016294 1 60 C1.804375 59.979375 2.60875 59.95875 3.4375 59.9375 C6 60 6 60 7 61 C7.1245486 62.64230364 7.17568524 64.29052276 7.1875 65.9375 C7.20167969 66.83339844 7.21585938 67.72929687 7.23046875 68.65234375 C7 71 7 71 5 73 C3.68 73 2.36 73 1 73 C1 75.64 1 78.28 1 81 C2.65 81.33 4.3 81.66 6 82 C6.05391993 83.79133978 6.09275571 85.58313899 6.125 87.375 C6.14820313 88.37273437 6.17140625 89.37046875 6.1953125 90.3984375 C6 93 6 93 4 95 C3.01 95 2.02 95 1 95 C1 97.97 1 100.94 1 104 C1.804375 103.979375 2.60875 103.95875 3.4375 103.9375 C6 104 6 104 7 105 C7.09873816 106.99799572 7.12971799 108.99957158 7.125 111 C7.12757813 112.093125 7.13015625 113.18625 7.1328125 114.3125 C7 117 7 117 6 118 C4.33382885 118.04063832 2.66611905 118.042721 1 118 C1.02356567 119.97577026 1.02356567 119.97577026 1.04760742 121.99145508 C1.10185386 126.87225239 1.1363309 131.753023 1.16479492 136.6340332 C1.1798936 138.74768554 1.20037426 140.86130648 1.22631836 142.97485352 C1.26265397 146.01065815 1.27971544 149.04604906 1.29296875 152.08203125 C1.30845261 153.02899368 1.32393646 153.97595612 1.33988953 154.95161438 C1.34022942 156.27264412 1.34022942 156.27264412 1.34057617 157.62036133 C1.35056892 158.78285149 1.35056892 158.78285149 1.36076355 159.96882629 C0.90028325 162.561426 0.09200695 163.43949542 -2 165 C-5.0625 165.3125 -5.0625 165.3125 -8 165 C-10 163 -10 163 -10.24050903 161.05111694 C-10.23606781 160.256138 -10.23162659 159.46115906 -10.22705078 158.64208984 C-10.22682419 157.29091568 -10.22682419 157.29091568 -10.22659302 155.91244507 C-10.21627045 154.93844757 -10.20594788 153.96445007 -10.1953125 152.9609375 C-10.1924826 151.96494537 -10.18965271 150.96895325 -10.18673706 149.94277954 C-10.1755184 146.75339882 -10.15041081 143.56429622 -10.125 140.375 C-10.11497238 138.21614988 -10.10584615 136.05729537 -10.09765625 133.8984375 C-10.07557356 128.59885074 -10.04103225 123.29947256 -10 118 C-14.62 118 -19.24 118 -24 118 C-24.44988281 118.94359375 -24.89976562 119.8871875 -25.36328125 120.859375 C-30.04646192 130.33487827 -35.45286193 137.63149242 -43 145 C-43.96679688 145.99773437 -43.96679688 145.99773437 -44.953125 147.015625 C-60.41729278 161.94190868 -81.69433145 165.66336457 -102.30859375 165.3359375 C-121.00847344 164.57855325 -137.83582946 154.90275439 -151 142 C-166 124.73497689 -166 124.73497689 -166 117 C-165.05125 117.165 -164.1025 117.33 -163.125 117.5 C-155.7375237 118.51896225 -149.58836675 118.95302005 -143 115 C-142.34 115 -141.68 115 -141 115 C-139.84375 116.65234375 -139.84375 116.65234375 -138.5 118.9375 C-131.37060061 129.88991066 -120.52056109 137.61417825 -107.6875 140.375 C-90.68021026 142.75209957 -75.44027955 140.55314275 -61.5234375 130.1484375 C-53.55058575 123.45550844 -48.84720678 115.5727557 -45 106 C-44.67 106 -44.34 106 -44 106 C-43.505 111.445 -43.505 111.445 -43 117 C-38.71 117 -34.42 117 -30 117 C-29.67 98.19 -29.34 79.38 -29 60 C-33.95 60 -38.9 60 -44 60 C-44 63.63 -44 67.26 -44 71 C-46.58873636 67.11689545 -48.84125682 63.06316532 -51.1484375 59.0078125 C-59.13330163 46.03661972 -72.57507739 39.55554849 -87 36 C-102.36750965 34.60147531 -115.48962478 37.71415868 -128 47 C-128.65613281 47.47308594 -129.31226563 47.94617188 -129.98828125 48.43359375 C-135.09966173 52.43429732 -138.48789255 57.59840009 -142 63 C-146.75 61.125 -146.75 61.125 -149 60 C-151.31082534 59.90264181 -153.62462958 59.87022627 -155.9375 59.875 C-157.80728516 59.87113281 -157.80728516 59.87113281 -159.71484375 59.8671875 C-163.00676297 59.84800569 -163.00676297 59.84800569 -166 61 C-162.10762464 44.87444492 -148.7560081 31.45607425 -135 23 C-117.05110648 13.00492988 -95.13805239 8.8346576 -74.8359375 14.12890625 C-70.72554616 15.43696152 -66.88523913 17.13076828 -63 19 C-62.00484375 19.44472656 -61.0096875 19.88945312 -59.984375 20.34765625 C-42.7892286 28.77327799 -32.03134698 43.6216087 -23 60 C-22.67 59.67 -22.34 59.34 -22 59 C-18.66672158 58.8575522 -15.33546107 58.95777897 -12 59 C-12.21148682 58.35095703 -12.42297363 57.70191406 -12.64086914 57.03320312 C-14.84383158 49.74474036 -15.48872247 43.09023862 -15.4375 35.5 C-15.45748047 34.44941406 -15.47746094 33.39882812 -15.49804688 32.31640625 C-15.49116405 21.18000065 -11.77659265 9.90110269 -4.53515625 1.25 C-3 0 -3 0 0 0 Z " fill="#EC660B" transform="translate(349,172)"/>
<path d="M0 0 C1.31857548 2.63715096 1.11991704 4.5983264 1.11352539 7.55126953 C1.11344986 8.71232208 1.11337433 9.87337463 1.11329651 11.0696106 C1.10813522 12.32796722 1.10297394 13.58632385 1.09765625 14.8828125 C1.0962413 16.16735321 1.09482635 17.45189392 1.09336853 18.77536011 C1.08954911 22.19156842 1.07972373 25.60773426 1.06866455 29.02392578 C1.05843807 32.50943426 1.05386826 35.9949496 1.04882812 39.48046875 C1.03810096 46.32032995 1.02103142 53.16016294 1 60 C1.804375 59.979375 2.60875 59.95875 3.4375 59.9375 C6 60 6 60 7 61 C7.1245486 62.64230364 7.17568524 64.29052276 7.1875 65.9375 C7.20167969 66.83339844 7.21585937 67.72929687 7.23046875 68.65234375 C7 71 7 71 5 73 C3.68 73 2.36 73 1 73 C1 75.64 1 78.28 1 81 C2.65 81.33 4.3 81.66 6 82 C6.05391993 83.79133978 6.09275571 85.58313899 6.125 87.375 C6.14820313 88.37273437 6.17140625 89.37046875 6.1953125 90.3984375 C6 93 6 93 4 95 C3.01 95 2.02 95 1 95 C1 97.97 1 100.94 1 104 C1.804375 103.979375 2.60875 103.95875 3.4375 103.9375 C6 104 6 104 7 105 C7.09873816 106.99799572 7.12971799 108.99957158 7.125 111 C7.12886719 112.6396875 7.12886719 112.6396875 7.1328125 114.3125 C7 117 7 117 6 118 C4.33382885 118.04063832 2.66611905 118.042721 1 118 C1.01571045 119.31718018 1.0314209 120.63436035 1.04760742 121.99145508 C1.10185386 126.87225239 1.1363309 131.753023 1.16479492 136.6340332 C1.1798936 138.74768554 1.20037426 140.86130648 1.22631836 142.97485352 C1.26265397 146.01065815 1.27971544 149.04604906 1.29296875 152.08203125 C1.30845261 153.02899368 1.32393646 153.97595612 1.33988953 154.95161438 C1.34011612 155.83230087 1.34034271 156.71298737 1.34057617 157.62036133 C1.34723801 158.39535477 1.35389984 159.17034821 1.36076355 159.96882629 C0.90028325 162.561426 0.09200695 163.43949542 -2 165 C-5.0625 165.3125 -5.0625 165.3125 -8 165 C-10 163 -10 163 -10.24050903 161.05111694 C-10.23606781 160.256138 -10.23162659 159.46115906 -10.22705078 158.64208984 C-10.22689972 157.74130707 -10.22674866 156.84052429 -10.22659302 155.91244507 C-10.21627045 154.93844757 -10.20594788 153.96445007 -10.1953125 152.9609375 C-10.1924826 151.96494537 -10.18965271 150.96895325 -10.18673706 149.94277954 C-10.1755184 146.75339882 -10.15041081 143.56429622 -10.125 140.375 C-10.11497238 138.21614988 -10.10584615 136.05729537 -10.09765625 133.8984375 C-10.07557361 128.59886301 -10.04207958 123.29945137 -10 118 C-10.84304688 118.02320313 -11.68609375 118.04640625 -12.5546875 118.0703125 C-13.65039062 118.08835937 -14.74609375 118.10640625 -15.875 118.125 C-17.51082031 118.15980469 -17.51082031 118.15980469 -19.1796875 118.1953125 C-22 118 -22 118 -24 116 C-24.25396729 113.68493652 -24.25396729 113.68493652 -24.25878906 110.75585938 C-24.26509338 109.66132446 -24.27139771 108.56678955 -24.27789307 107.43908691 C-24.2738446 106.25262573 -24.26979614 105.06616455 -24.265625 103.84375 C-24.26753845 102.63054077 -24.2694519 101.41733154 -24.27142334 100.1673584 C-24.27278634 97.59838657 -24.26908192 95.02940788 -24.26074219 92.46044922 C-24.2500446 88.51644496 -24.26063394 84.57289625 -24.2734375 80.62890625 C-24.27211593 78.13801982 -24.26955358 75.64713368 -24.265625 73.15625 C-24.27169769 71.37655823 -24.27169769 71.37655823 -24.27789307 69.56091309 C-24.27158875 68.46637817 -24.26528442 67.37184326 -24.25878906 66.24414062 C-24.25719788 65.27754517 -24.25560669 64.31094971 -24.25396729 63.31506348 C-24 61 -24 61 -22 59 C-19.40139523 58.78699961 -16.87100691 58.87510239 -14.26611328 58.94189453 C-13.5182959 58.96106934 -12.77047852 58.98024414 -12 59 C-12.21148682 58.35095703 -12.42297363 57.70191406 -12.64086914 57.03320312 C-14.84383158 49.74474036 -15.48872247 43.09023862 -15.4375 35.5 C-15.45748047 34.44941406 -15.47746094 33.39882812 -15.49804688 32.31640625 C-15.49116405 21.18000065 -11.77659265 9.90110269 -4.53515625 1.25 C-3 0 -3 0 0 0 Z " fill="#380452" transform="translate(349,172)"/>
<path d="M0 0 C0.66 0.33 1.32 0.66 2 1 C2.41064453 3.95922852 2.41064453 3.95922852 2.6328125 7.87890625 C2.67437469 8.5655687 2.71593689 9.25223114 2.75875854 9.95970154 C2.88986415 12.16021518 3.00756636 14.36121843 3.125 16.5625 C3.21136008 18.05148356 3.29858833 19.54041705 3.38671875 21.02929688 C3.60123538 24.6856696 3.80373526 28.34259708 4 32 C5.32 32 6.64 32 8 32 C8.05534912 31.10168457 8.11069824 30.20336914 8.16772461 29.27783203 C8.37487829 25.9491461 8.58589839 22.62075248 8.79956055 19.29248047 C8.89128605 17.85117241 8.98146339 16.40976497 9.07006836 14.96826172 C9.19760001 12.89783171 9.33067155 10.82782145 9.46484375 8.7578125 C9.543396 7.5114502 9.62194824 6.26508789 9.70288086 4.98095703 C10 2 10 2 11 0 C11.66 0 12.32 0 13 0 C13.66 10.23 14.32 20.46 15 31 C16.32 31.33 17.64 31.66 19 32 C19.01981934 31.42145264 19.03963867 30.84290527 19.06005859 30.24682617 C19.82463304 9.01826886 19.82463304 9.01826886 22 0 C22.66 0.33 23.32 0.66 24 1 C25.58575058 9.71003927 25.27495078 18.98543026 25.375 27.8125 C25.43107422 29.71805664 25.43107422 29.71805664 25.48828125 31.66210938 C25.56097278 39.37952676 24.96065407 43.11624688 20 49 C20.29613819 51.02743991 20.29613819 51.02743991 21 53 C21.06688591 54.91561254 21.08531719 56.83335592 21.0625 58.75 C21.05347656 59.73484375 21.04445312 60.7196875 21.03515625 61.734375 C21.02355469 62.48203125 21.01195312 63.2296875 21 64 C19.515 64.495 19.515 64.495 18 65 C18.16532227 66.27560791 18.33064453 67.55121582 18.50097656 68.86547852 C19.30200835 76.94166485 19.07268672 85.04792945 18.984375 93.15234375 C18.96765497 94.90206346 18.95099335 96.65178372 18.93438721 98.40150452 C18.89811601 102.04840856 18.8569154 105.69522167 18.81298828 109.34204102 C18.75766753 114.0182296 18.72131913 118.6943662 18.68935776 123.37076473 C18.66154703 126.97477262 18.62050394 130.57854126 18.57575226 134.18237495 C18.55655443 135.90753033 18.54225974 137.63274747 18.53295135 139.35798454 C18.51866352 141.76111355 18.48579493 144.16329978 18.44824219 146.56616211 C18.44810623 147.27837418 18.44797028 147.99058624 18.4478302 148.72438049 C18.38621697 151.60775529 18.31952298 153.54784477 16.62823486 155.94117737 C14.27675906 157.47031537 12.74428644 157.41164297 10 157 C7.9510597 155.42834556 7.10358185 154.52766055 6.60127258 151.96882629 C6.584618 150.80633614 6.584618 150.80633614 6.56762695 149.62036133 C6.54783279 148.73967484 6.52803864 147.85898834 6.50764465 146.95161438 C6.50125473 146.00465195 6.49486481 145.05768951 6.48828125 144.08203125 C6.47033005 143.10965012 6.45237885 142.13726898 6.43388367 141.13542175 C6.37967533 138.02782536 6.34585102 134.92038348 6.3125 131.8125 C6.27933624 129.70635866 6.24484747 127.60023773 6.20898438 125.49414062 C6.12394269 120.32953839 6.05718159 115.16498281 6 110 C5.14535156 110.01160156 4.29070312 110.02320313 3.41015625 110.03515625 C2.30542969 110.04417969 1.20070312 110.05320312 0.0625 110.0625 C-1.03964844 110.07410156 -2.14179688 110.08570313 -3.27734375 110.09765625 C-6 110 -6 110 -7 109 C-7.09887792 107.25617465 -7.12799032 105.50834457 -7.12939453 103.76171875 C-7.13254669 102.64385986 -7.13569885 101.52600098 -7.13894653 100.37426758 C-7.1369223 99.15763428 -7.13489807 97.94100098 -7.1328125 96.6875 C-7.13376923 95.44830811 -7.13472595 94.20911621 -7.13571167 92.93237305 C-7.13639374 90.30611719 -7.13503538 87.67995367 -7.13037109 85.05371094 C-7.12467381 81.68071286 -7.12795302 78.30779435 -7.13394356 74.93479919 C-7.1384177 71.72736323 -7.13528882 68.519937 -7.1328125 65.3125 C-7.13483673 64.0958667 -7.13686096 62.8792334 -7.13894653 61.62573242 C-7.13579437 60.50787354 -7.13264221 59.39001465 -7.12939453 58.23828125 C-7.12859894 57.24868408 -7.12780334 56.25908691 -7.12698364 55.23950195 C-7 53 -7 53 -6 52 C-3.98035801 51.92755947 -1.95832876 51.91622812 0.0625 51.9375 C1.71958984 51.95103516 1.71958984 51.95103516 3.41015625 51.96484375 C4.26480469 51.97644531 5.11945313 51.98804688 6 52 C5.34 50.35 4.68 48.7 4 47 C3.34 47 2.68 47 2 47 C-2.87097216 39.54132388 -2.4394689 32.66353013 -2 24 C-1.96712891 23.26378418 -1.93425781 22.52756836 -1.90039062 21.76904297 C-1.5676563 14.46301329 -1.12080678 7.23344208 0 0 Z " fill="#350252" transform="translate(152,180)"/>
<path d="M0 0 C5.03159123 1.95130962 8.76103 4.70022085 11 9.6875 C11.495 11.3271875 11.495 11.3271875 12 13 C12.495 14.485 12.495 14.485 13 16 C13.28970834 20.32844237 13.27793279 24.66296701 13.3125 29 C13.34150391 30.18207031 13.37050781 31.36414063 13.40039062 32.58203125 C13.46091215 41.02711153 12.89670188 49.67612591 6.9934082 56.2265625 C2.56064676 60.17017292 -1.78606433 60.32802661 -7.50390625 60.18359375 C-12.44323922 59.82029383 -15.85507746 58.91073384 -19.75 55.8125 C-24.21130589 50.23586763 -25.46372656 45.16253642 -25.43359375 38.125 C-25.4388356 37.39684082 -25.44407745 36.66868164 -25.44947815 35.91845703 C-25.45586109 34.38901029 -25.45461002 32.85951421 -25.44604492 31.33007812 C-25.43752058 29.00561317 -25.46636631 26.68359885 -25.49804688 24.359375 C-25.49965902 22.86458406 -25.49908109 21.36978882 -25.49609375 19.875 C-25.50732773 19.18937988 -25.51856171 18.50375977 -25.53013611 17.79736328 C-25.45283316 12.37860528 -23.95955955 9.37921322 -21 5 C-14.49606011 -0.88451704 -8.59094959 -0.96070834 0 0 Z " fill="#360251" transform="translate(200,231)"/>
<path d="M0 0 C5.29288813 2.41847323 8.50881497 5.59305045 10.6015625 11.10546875 C12.14301782 16.78689623 11.89205215 22.67302982 11.8984375 28.515625 C11.92292969 29.67964844 11.94742188 30.84367187 11.97265625 32.04296875 C12.00073909 40.40229343 11.35032348 49.01684091 5.51708984 55.49316406 C1.08321488 59.43511021 -3.26257057 59.59365303 -8.98046875 59.44921875 C-13.91980172 59.08591883 -17.33163996 58.17635884 -21.2265625 55.078125 C-25.68786839 49.50149263 -26.94028906 44.42816142 -26.91015625 37.390625 C-26.9153981 36.66246582 -26.92063995 35.93430664 -26.92604065 35.18408203 C-26.93242359 33.65463529 -26.93117252 32.12513921 -26.92260742 30.59570312 C-26.91408308 28.27123817 -26.94292881 25.94922385 -26.97460938 23.625 C-26.97622152 22.13020906 -26.97564359 20.63541382 -26.97265625 19.140625 C-26.98389023 18.45500488 -26.99512421 17.76938477 -27.00669861 17.06298828 C-26.92042344 11.01529842 -24.81554465 7.10359001 -21.01171875 2.48828125 C-14.99697575 -2.25012372 -7.1412402 -2.11759173 0 0 Z " fill="#360150" transform="translate(244.4765625,231.734375)"/>
<path d="M0 0 C1.6097168 -0.06864258 1.6097168 -0.06864258 3.25195312 -0.13867188 C9.90558965 -0.23238507 13.84649144 0.50943032 18.94165039 4.90234375 C26.03346298 12.18050885 25.92230786 21.89838691 25.94384766 31.43554688 C25.75423074 40.11848485 23.81539323 46.60894129 17.84375 53.1953125 C13.69823472 56.89666543 9.97071406 58.70010017 4.453125 58.6328125 C3.51855469 58.62636719 2.58398438 58.61992187 1.62109375 58.61328125 C0.16896484 58.58814453 0.16896484 58.58814453 -1.3125 58.5625 C-2.29605469 58.55347656 -3.27960938 58.54445313 -4.29296875 58.53515625 C-6.71639407 58.51162785 -9.13932222 58.47875368 -11.5625 58.4375 C-12.84483558 55.87282885 -12.68953853 54.04881278 -12.69189453 51.17749023 C-12.69504669 50.07972763 -12.69819885 48.98196503 -12.70144653 47.85093689 C-12.6994223 46.66133865 -12.69739807 45.47174042 -12.6953125 44.24609375 C-12.69626923 43.03051285 -12.69722595 41.81493195 -12.69821167 40.56251526 C-12.69889312 37.98934884 -12.69704128 35.41618071 -12.69287109 32.84301758 C-12.68751779 28.88814464 -12.69281968 24.93338503 -12.69921875 20.97851562 C-12.69855805 18.48437475 -12.69727707 15.99023394 -12.6953125 13.49609375 C-12.69733673 12.30447128 -12.69936096 11.11284882 -12.70144653 9.88511658 C-12.69829437 8.79050613 -12.69514221 7.69589569 -12.69189453 6.56811523 C-12.69109894 5.59929916 -12.69030334 4.63048309 -12.68948364 3.63230896 C-12.36993484 -1.89083207 -4.21359678 0.07158425 0 0 Z " fill="#360150" transform="translate(274.5625,231.5625)"/>
<path d="M0 0 C14.02925065 12.34488773 14.02925065 12.34488773 16.1328125 19.82421875 C15.4728125 19.82421875 14.8128125 19.82421875 14.1328125 19.82421875 C14.1328125 23.45421875 14.1328125 27.08421875 14.1328125 30.82421875 C11.54407614 26.9411142 9.29155568 22.88738407 6.984375 18.83203125 C-1.00048913 5.86083847 -14.44226489 -0.62023276 -28.8671875 -4.17578125 C-44.23469715 -5.57430594 -57.35681228 -2.46162257 -69.8671875 6.82421875 C-70.52332031 7.29730469 -71.17945313 7.77039063 -71.85546875 8.2578125 C-76.96684923 12.25851607 -80.35508005 17.42261884 -83.8671875 22.82421875 C-85.5171875 22.16421875 -87.1671875 21.50421875 -88.8671875 20.82421875 C-88.8671875 14.30545346 -85.04919033 10.22157754 -80.76953125 5.51953125 C-58.64392582 -15.83038517 -24.73207234 -18.76807124 0 0 Z " fill="#FDF8F4" transform="translate(290.8671875,212.17578125)"/>
<path d="M0 0 C0.33 0 0.66 0 1 0 C1.06058594 0.77085937 1.12117188 1.54171875 1.18359375 2.3359375 C1.26738281 3.33882813 1.35117187 4.34171875 1.4375 5.375 C1.51871094 6.37273437 1.59992188 7.37046875 1.68359375 8.3984375 C1.84965626 10.97927613 1.84965626 10.97927613 3 13 C-6.30317965 26.78999926 -17.80664963 37.05965582 -34 42 C-52.32188837 45.21871012 -69.21368329 42.9869391 -85 33 C-92.42588176 27.60229705 -98.48406855 21.02172033 -103 13 C-102 11 -102 11 -98.9375 9.875 C-97.4834375 9.441875 -97.4834375 9.441875 -96 9 C-95.68289062 9.54527344 -95.36578125 10.09054687 -95.0390625 10.65234375 C-88.02344711 21.98973326 -78.15724935 29.93505741 -65.3203125 33.80859375 C-50.22017941 37.0571387 -34.97556795 35.5505484 -21.6015625 27.7265625 C-10.93180388 20.6454314 -4.72383278 11.75400746 0 0 Z " fill="#FDF8F5" transform="translate(304,278)"/>
<path d="M0 0 C4.95 0 9.9 0 15 0 C15.02255577 7.41460363 15.04091784 14.82918865 15.05181217 22.24381924 C15.05703982 25.68640348 15.06413531 29.12896312 15.07543945 32.5715332 C15.08834235 36.52555043 15.09322918 40.47955756 15.09765625 44.43359375 C15.10281754 45.67523788 15.10797882 46.91688202 15.11329651 48.19615173 C15.11337204 49.33725906 15.11344757 50.47836639 15.11352539 51.65405273 C15.115746 52.664431 15.11796661 53.67480927 15.12025452 54.71580505 C15 57 15 57 14 58 C11.83519203 58.0989294 9.66706215 58.129711 7.5 58.125 C6.3140625 58.12757813 5.128125 58.13015625 3.90625 58.1328125 C1 58 1 58 0 57 C-0.09370624 55.22008076 -0.11744271 53.43643261 -0.11352539 51.65405273 C-0.11344986 50.5129454 -0.11337433 49.37183807 -0.11329651 48.19615173 C-0.10813522 46.9545076 -0.10297394 45.71286346 -0.09765625 44.43359375 C-0.0962413 43.16983414 -0.09482635 41.90607452 -0.09336853 40.60401917 C-0.08870582 37.23875111 -0.0797148 33.8735501 -0.06866455 30.50830078 C-0.05844846 27.0765033 -0.05387049 23.64469891 -0.04882812 20.21289062 C-0.0377738 13.47523936 -0.02049637 6.73762889 0 0 Z " fill="#360250" transform="translate(305,232)"/>
<path d="M0 0 C1.31857548 2.63715096 1.11991704 4.5983264 1.11352539 7.55126953 C1.11344986 8.71232208 1.11337433 9.87337463 1.11329651 11.0696106 C1.10813522 12.32796722 1.10297394 13.58632385 1.09765625 14.8828125 C1.0962413 16.16735321 1.09482635 17.45189392 1.09336853 18.77536011 C1.08954911 22.19156842 1.07972373 25.60773426 1.06866455 29.02392578 C1.05843807 32.50943426 1.05386826 35.9949496 1.04882812 39.48046875 C1.03810095 46.32033171 1.02050879 53.16015945 1 60 C-6.59 60 -14.18 60 -22 60 C-22 59.67 -22 59.34 -22 59 C-18.7 59 -15.4 59 -12 59 C-12.48597656 57.4428125 -12.97195313 55.885625 -13.47265625 54.28125 C-15.19007143 47.95808556 -15.48152827 42.02418897 -15.4375 35.5 C-15.45748047 34.44941406 -15.47746094 33.39882812 -15.49804688 32.31640625 C-15.49116405 21.18000065 -11.77659265 9.90110269 -4.53515625 1.25 C-3 0 -3 0 0 0 Z " fill="#EA650D" transform="translate(349,172)"/>
<path d="M0 0 C0.66 0.33 1.32 0.66 2 1 C2.41064453 3.95922852 2.41064453 3.95922852 2.6328125 7.87890625 C2.67437469 8.5655687 2.71593689 9.25223114 2.75875854 9.95970154 C2.88986415 12.16021518 3.00756636 14.36121843 3.125 16.5625 C3.21136008 18.05148356 3.29858833 19.54041705 3.38671875 21.02929688 C3.60123538 24.6856696 3.80373526 28.34259708 4 32 C5.32 32 6.64 32 8 32 C8.05534912 31.10168457 8.11069824 30.20336914 8.16772461 29.27783203 C8.37487829 25.9491461 8.58589839 22.62075248 8.79956055 19.29248047 C8.89128605 17.85117241 8.98146339 16.40976497 9.07006836 14.96826172 C9.19760001 12.89783171 9.33067155 10.82782145 9.46484375 8.7578125 C9.543396 7.5114502 9.62194824 6.26508789 9.70288086 4.98095703 C10 2 10 2 11 0 C11.66 0 12.32 0 13 0 C13.66 10.23 14.32 20.46 15 31 C16.32 31.33 17.64 31.66 19 32 C19.01981934 31.42145264 19.03963867 30.84290527 19.06005859 30.24682617 C19.82463304 9.01826886 19.82463304 9.01826886 22 0 C22.66 0.33 23.32 0.66 24 1 C25.58575058 9.71003927 25.27495078 18.98543026 25.375 27.8125 C25.41238281 29.08287109 25.44976562 30.35324219 25.48828125 31.66210938 C25.5598681 39.26224659 25.14562149 43.32398368 20 49 C19.67 49.99 19.34 50.98 19 52 C14.71 52 10.42 52 6 52 C5.34 50.35 4.68 48.7 4 47 C3.34 47 2.68 47 2 47 C-2.87097216 39.54132388 -2.4394689 32.66353013 -2 24 C-1.96712891 23.26378418 -1.93425781 22.52756836 -1.90039062 21.76904297 C-1.5676563 14.46301329 -1.12080678 7.23344208 0 0 Z " fill="#EB6911" transform="translate(152,180)"/>
<path d="M0 0 C1.37478516 0.01740234 1.37478516 0.01740234 2.77734375 0.03515625 C3.69644531 0.04417969 4.61554688 0.05320312 5.5625 0.0625 C6.27277344 0.07410156 6.98304688 0.08570313 7.71484375 0.09765625 C7.7843177 8.65114395 7.83764151 17.204514 7.87028027 25.758214 C7.88594431 29.72994252 7.90719574 33.70147818 7.94116211 37.6730957 C7.97372971 41.50508714 7.9916912 45.33689293 7.99947548 49.16901207 C8.00502371 50.63188284 8.015858 52.09474332 8.03203392 53.55753517 C8.05377454 55.60474321 8.05681222 57.65118165 8.05541992 59.69848633 C8.06208176 60.8643074 8.06874359 62.03012848 8.0756073 63.23127747 C7.71484375 66.09765625 7.71484375 66.09765625 6.34980774 67.97416687 C4.00408973 69.58606126 2.49628833 69.51487294 -0.28515625 69.09765625 C-1.91912842 67.96743774 -1.91912842 67.96743774 -3.28515625 66.09765625 C-3.65264893 63.27597046 -3.65264893 63.27597046 -3.64160156 59.80615234 C-3.64460266 58.50825775 -3.64760376 57.21036316 -3.6506958 55.87313843 C-3.63869187 54.45578616 -3.62620897 53.03843789 -3.61328125 51.62109375 C-3.61022369 50.17046301 -3.60834755 48.71982933 -3.60760498 47.26919556 C-3.60300362 44.23110701 -3.58858207 41.19328379 -3.56640625 38.15527344 C-3.53807355 34.25320845 -3.52718962 30.35135204 -3.52272415 26.44919395 C-3.51857637 23.45529071 -3.50876512 20.46142998 -3.49684906 17.46754837 C-3.49113692 16.02817756 -3.48638135 14.58880264 -3.48258209 13.14942551 C-3.47573967 11.14304923 -3.46121324 9.13670353 -3.44628906 7.13037109 C-3.43946106 5.9869223 -3.43263306 4.84347351 -3.42559814 3.66537476 C-3.23267578 0.13814854 -3.23267578 0.13814854 0 0 Z " fill="#E96209" transform="translate(162.28515625,267.90234375)"/>
<path d="M0 0 C3.63 0 7.26 0 11 0 C11.07408447 6.21131774 11.12857114 12.42237905 11.16479492 18.6340332 C11.1798936 20.74768554 11.20037426 22.86130648 11.22631836 24.97485352 C11.26265397 28.01065815 11.27971544 31.04604906 11.29296875 34.08203125 C11.30845261 35.02899368 11.32393646 35.97595612 11.33988953 36.95161438 C11.34022942 38.27264412 11.34022942 38.27264412 11.34057617 39.62036133 C11.34723801 40.39535477 11.35389984 41.17034821 11.36076355 41.96882629 C10.90028325 44.561426 10.09200695 45.43949542 8 47 C4.9375 47.3125 4.9375 47.3125 2 47 C0 45 0 45 -0.24050903 43.05111694 C-0.23606781 42.256138 -0.23162659 41.46115906 -0.22705078 40.64208984 C-0.22689972 39.74130707 -0.22674866 38.84052429 -0.22659302 37.91244507 C-0.21627045 36.93844757 -0.20594788 35.96445007 -0.1953125 34.9609375 C-0.1924826 33.96494537 -0.18965271 32.96895325 -0.18673706 31.94277954 C-0.1755184 28.75339882 -0.15041081 25.56429622 -0.125 22.375 C-0.11497238 20.21614988 -0.10584615 18.05729537 -0.09765625 15.8984375 C-0.07557356 10.59885074 -0.04103225 5.29947256 0 0 Z " fill="#EC6409" transform="translate(339,290)"/>
<path d="M0 0 C2.5625 0.25 2.5625 0.25 5 1 C7.16717275 5.3343455 6.18496361 11.17670525 6.1875 15.9375 C6.19974609 17.14341797 6.21199219 18.34933594 6.22460938 19.59179688 C6.22750977 21.32333008 6.22750977 21.32333008 6.23046875 23.08984375 C6.23457764 24.15066162 6.23868652 25.21147949 6.24291992 26.30444336 C6 29 6 29 4 32 C-0.875 31.125 -0.875 31.125 -2 30 C-2.2541555 25.35984675 -2.18522798 20.70878694 -2.1875 16.0625 C-2.19974609 14.74830078 -2.21199219 13.43410156 -2.22460938 12.08007812 C-2.22750977 10.2015918 -2.22750977 10.2015918 -2.23046875 8.28515625 C-2.23457764 7.12894775 -2.23868652 5.97273926 -2.24291992 4.78149414 C-2 2 -2 2 0 0 Z " fill="#EBDBDA" transform="translate(192,245)"/>
<path d="M0 0 C2.5625 0.25 2.5625 0.25 5 1 C7.17146805 5.3429361 6.22966856 11.1672356 6.25 15.9375 C6.270625 17.14341797 6.29125 18.34933594 6.3125 19.59179688 C6.31765625 20.74615234 6.3228125 21.90050781 6.328125 23.08984375 C6.3374707 24.15066162 6.34681641 25.21147949 6.35644531 26.30444336 C6 29 6 29 4.61230469 30.88500977 C3 32 3 32 0.875 31.75 C-1 31 -1 31 -2 30 C-2.2541555 25.35984675 -2.18522798 20.70878694 -2.1875 16.0625 C-2.19974609 14.74830078 -2.21199219 13.43410156 -2.22460938 12.08007812 C-2.22750977 10.2015918 -2.22750977 10.2015918 -2.23046875 8.28515625 C-2.23457764 7.12894775 -2.23868652 5.97273926 -2.24291992 4.78149414 C-2 2 -2 2 0 0 Z " fill="#E25E0B" transform="translate(235,245)"/>
<path d="M0 0 C4.7734375 0.7109375 4.7734375 0.7109375 6.8125 3.3125 C9.53602536 11.76976297 8.09856815 20.53077852 6 29 C4.34385343 29.38218767 2.67542976 29.71395102 1 30 C0 29 0 29 -0.11352539 26.22436523 C-0.10828857 25.01466064 -0.10305176 23.80495605 -0.09765625 22.55859375 C-0.09443359 21.25341797 -0.09121094 19.94824219 -0.08789062 18.60351562 C-0.07953401 17.2148431 -0.07106905 15.82617123 -0.0625 14.4375 C-0.05748666 13.04492344 -0.05292347 11.65234519 -0.04882812 10.25976562 C-0.03699434 6.8398013 -0.0205088 3.41992156 0 0 Z " fill="#E45F0B" transform="translate(277,246)"/>
<path d="M0 0 C2.125 0.375 2.125 0.375 4 1 C3.51273438 2.22589844 3.51273438 2.22589844 3.015625 3.4765625 C1.83248514 7.58114769 1.70473443 11.135125 1.75 15.375 C1.74226562 16.09171875 1.73453125 16.8084375 1.7265625 17.546875 C1.74501896 22.65931363 2.60157491 27.08331496 4 32 C-0.875 31.125 -0.875 31.125 -2 30 C-2.2541555 25.35984675 -2.18522798 20.70878694 -2.1875 16.0625 C-2.19974609 14.74830078 -2.21199219 13.43410156 -2.22460938 12.08007812 C-2.22750977 10.2015918 -2.22750977 10.2015918 -2.23046875 8.28515625 C-2.23457764 7.12894775 -2.23868652 5.97273926 -2.24291992 4.78149414 C-2 2 -2 2 0 0 Z " fill="#E9640B" transform="translate(192,245)"/>
<path d="M0 0 C1.37478516 0.01740234 1.37478516 0.01740234 2.77734375 0.03515625 C3.69644531 0.04417969 4.61554688 0.05320313 5.5625 0.0625 C6.27277344 0.07410156 6.98304688 0.08570313 7.71484375 0.09765625 C7.71484375 3.06765625 7.71484375 6.03765625 7.71484375 9.09765625 C6.06909809 9.12453776 4.42322962 9.14399748 2.77734375 9.16015625 C1.86082031 9.17175781 0.94429687 9.18335938 0 9.1953125 C-2.28515625 9.09765625 -2.28515625 9.09765625 -3.28515625 8.09765625 C-3.41015625 4.59765625 -3.41015625 4.59765625 -3.28515625 1.09765625 C-2.28515625 0.09765625 -2.28515625 0.09765625 0 0 Z " fill="#E05D0C" transform="translate(162.28515625,244.90234375)"/>
<path d="M0 0 C3.46679688 0.04882812 3.46679688 0.04882812 6.93359375 0.09765625 C6.93359375 3.06765625 6.93359375 6.03765625 6.93359375 9.09765625 C0 9.1953125 0 9.1953125 -2.06640625 9.09765625 C-3.06640625 8.09765625 -3.06640625 8.09765625 -3.19140625 4.59765625 C-3.03232226 0.14330445 -3.03232226 0.14330445 0 0 Z " fill="#E45F0B" transform="translate(343.06640625,266.90234375)"/>
<path d="M0 0 C1.23556641 0.01740234 1.23556641 0.01740234 2.49609375 0.03515625 C3.32238281 0.04417969 4.14867187 0.05320313 5 0.0625 C5.63808594 0.07410156 6.27617187 0.08570313 6.93359375 0.09765625 C6.93359375 2.73765625 6.93359375 5.37765625 6.93359375 8.09765625 C3.96359375 8.09765625 0.99359375 8.09765625 -2.06640625 8.09765625 C-2.44703846 5.77157055 -2.7791057 3.43710361 -3.06640625 1.09765625 C-2.06640625 0.09765625 -2.06640625 0.09765625 0 0 Z " fill="#E5610C" transform="translate(343.06640625,244.90234375)"/>
<path d="M0 0 C0.99 0 1.98 0 3 0 C3.33 3.96 3.66 7.92 4 12 C1.36 12 -1.28 12 -4 12 C-4.625 9.125 -4.625 9.125 -5 6 C-4.34 5.34 -3.68 4.68 -3 4 C-1.68 4 -0.36 4 1 4 C0.67 2.68 0.34 1.36 0 0 Z " fill="#1C123E" transform="translate(178,340)"/>
<path d="M0 0 C0.99 0 1.98 0 3 0 C3 3.63 3 7.26 3 11 C3.66 11.33 4.32 11.66 5 12 C-1.15234375 12.09765625 -1.15234375 12.09765625 -3 12 C-4 11 -4 11 -4.1875 8.5625 C-4 6 -4 6 -2 4 C-1.01 4 -0.02 4 1 4 C0.67 2.68 0.34 1.36 0 0 Z " fill="#78728D" transform="translate(327,340)"/>
<path d="M0 0 C2.625 0.375 2.625 0.375 5 1 C5.6875 3.3125 5.6875 3.3125 6 6 C4.8125 7.875 4.8125 7.875 3 9 C0.86254078 8.74853421 -0.45925779 8.54074221 -2 7 C-2.1875 4.5625 -2.1875 4.5625 -2 2 C-1.34 1.34 -0.68 0.68 0 0 Z " fill="#635C7A" transform="translate(202,344)"/>
<path d="M0 0 C4.55555556 0.55555556 4.55555556 0.55555556 6 2 C6.125 4.5 6.125 4.5 6 7 C5 8 5 8 1.9375 8.0625 C0.968125 8.041875 -0.00125 8.02125 -1 8 C-1.625 5.125 -1.625 5.125 -2 2 C-1.34 1.34 -0.68 0.68 0 0 Z " fill="#8D889E" transform="translate(313,344)"/>
<path d="M0 0 C4.55555556 0.55555556 4.55555556 0.55555556 6 2 C6.125 4.5 6.125 4.5 6 7 C5 8 5 8 1.9375 8.0625 C0.968125 8.041875 -0.00125 8.02125 -1 8 C-1.625 5.125 -1.625 5.125 -2 2 C-1.34 1.34 -0.68 0.68 0 0 Z " fill="#8D889E" transform="translate(152,344)"/>
<path d="M0 0 C2.64 0 5.28 0 8 0 C8 1.32 8 2.64 8 4 C7.34 4 6.68 4 6 4 C6 3.34 6 2.68 6 2 C5.34 2 4.68 2 4 2 C4 2.99 4 3.98 4 5 C4.99 5 5.98 5 7 5 C7 5.66 7 6.32 7 7 C6.01 7 5.02 7 4 7 C4.33 8.32 4.66 9.64 5 11 C3.35 11 1.7 11 0 11 C0 7.37 0 3.74 0 0 Z " fill="#463E63" transform="translate(139,341)"/>
<path d="M0 0 C2.625 0.375 2.625 0.375 5 1 C5.625 3.375 5.625 3.375 6 6 C4 8 4 8 1.4375 8.1875 C-1 8 -1 8 -2 7 C-2.1875 4.5625 -2.1875 4.5625 -2 2 C-1.34 1.34 -0.68 0.68 0 0 Z " fill="#635C7A" transform="translate(164,344)"/>
<path d="M0 0 C1 1 1 1 1.125 3.5 C1 6 1 6 0 7 C-2.4375 7.1875 -2.4375 7.1875 -5 7 C-5.66 6.34 -6.32 5.68 -7 5 C-6.75 2.4375 -6.75 2.4375 -6 0 C-3.49749232 -1.25125384 -2.59701335 -0.83774624 0 0 Z " fill="#625B7A" transform="translate(306,345)"/>
<path d="M0 0 C1.67542976 0.28604898 3.34385343 0.61781233 5 1 C5 2.32 5 3.64 5 5 C3.68 5 2.36 5 1 5 C1 5.66 1 6.32 1 7 C2.65 6.67 4.3 6.34 6 6 C5.01 7.485 5.01 7.485 4 9 C1.13275314 8.42655063 0.1385485 8.1385485 -2 6 C-1.44444444 1.44444444 -1.44444444 1.44444444 0 0 Z " fill="#362D55" transform="translate(229,344)"/>
<path d="M0 0 C0.639375 0.33 1.27875 0.66 1.9375 1 C3.76794567 2.07271225 3.76794567 2.07271225 5 2 C5 1.34 5 0.68 5 0 C6.32 0 7.64 0 9 0 C9 0.66 9 1.32 9 2 C8.34 2 7.68 2 7 2 C6.896875 2.721875 6.79375 3.44375 6.6875 4.1875 C5.92653591 7.30053492 4.9090983 9.43005998 3 12 C2.01 12 1.02 12 0 12 C0 11.01 0 10.02 0 9 C0.66 9 1.32 9 2 9 C1.51421457 5.87709365 1.0013988 3.00419641 0 0 Z " fill="#382F56" transform="translate(270,344)"/>
<path d="M0 0 C0.38133299 1.9914056 0.71325582 3.99279077 1 6 C0 7 0 7 -3.0625 7.0625 C-4.031875 7.041875 -5.00125 7.02125 -6 7 C-6 4.69 -6 2.38 -6 0 C-3.50907189 -1.24546405 -2.58919267 -0.7767578 0 0 Z " fill="#494164" transform="translate(359,345)"/>
<path d="M0 0 C2.64 0 5.28 0 8 0 C7.67 1.32 7.34 2.64 7 4 C7 3.34 7 2.68 7 2 C6.01 2 5.02 2 4 2 C4 2.99 4 3.98 4 5 C4.99 5 5.98 5 7 5 C7 5.66 7 6.32 7 7 C6.01 7 5.02 7 4 7 C4.33 8.32 4.66 9.64 5 11 C3.68 10.67 2.36 10.34 1 10 C1.33 7.36 1.66 4.72 2 2 C1.34 2 0.68 2 0 2 C0 1.34 0 0.68 0 0 Z " fill="#2D234D" transform="translate(288,341)"/>
<path d="M0 0 C2.625 0.375 2.625 0.375 5 1 C5 2.32 5 3.64 5 5 C3.68 5 2.36 5 1 5 C1 5.66 1 6.32 1 7 C2.32 6.67 3.64 6.34 5 6 C5 6.66 5 7.32 5 8 C3.02 8 1.04 8 -1 8 C-1.625 5.125 -1.625 5.125 -2 2 C-1.34 1.34 -0.68 0.68 0 0 Z " fill="#443B60" transform="translate(344,344)"/>
<path d="M0 0 C1.32 0 2.64 0 4 0 C4 0.99 4 1.98 4 3 C3.67 3.33 3.34 3.66 3 4 C3 4.66 3 5.32 3 6 C2.34 6 1.68 6 1 6 C1.33 7.98 1.66 9.96 2 12 C0.68 11.67 -0.64 11.34 -2 11 C-2.28571429 3.57142857 -2.28571429 3.57142857 0 0 Z " fill="#241A45" transform="translate(194,340)"/>
<path d="M0 0 C2.625 0.375 2.625 0.375 5 1 C5 1.99 5 2.98 5 4 C3.35 4 1.7 4 0 4 C0.33 4.66 0.66 5.32 1 6 C2.32 6 3.64 6 5 6 C5 6.66 5 7.32 5 8 C3.00045254 8.04254356 0.99958364 8.04080783 -1 8 C-2 7 -2 7 -2.1875 4.5625 C-2 2 -2 2 0 0 Z " fill="#352B53" transform="translate(252,344)"/>
<path d="M0 0 C1.2065625 0.0309375 1.2065625 0.0309375 2.4375 0.0625 C2.7675 1.0525 3.0975 2.0425 3.4375 3.0625 C2.7775 3.0625 2.1175 3.0625 1.4375 3.0625 C1.4375 4.7125 1.4375 6.3625 1.4375 8.0625 C-0.2125 8.0625 -1.8625 8.0625 -3.5625 8.0625 C-3.60491723 5.72955225 -3.60342937 3.39547433 -3.5625 1.0625 C-2.5625 0.0625 -2.5625 0.0625 0 0 Z " fill="#393057" transform="translate(214.5625,343.9375)"/>
<path d="M0 0 C1.98 0.99 1.98 0.99 4 2 C4.33 1.34 4.66 0.68 5 0 C6.32 0 7.64 0 9 0 C9 0.66 9 1.32 9 2 C8.34 2 7.68 2 7 2 C6.34 3.98 5.68 5.96 5 8 C4.34 8 3.68 8 3 8 C0 2.25 0 2.25 0 0 Z " fill="#332A52" transform="translate(238,344)"/>
<path d="M0 0 C1.32 0.66 2.64 1.32 4 2 C4 3.65 4 5.3 4 7 C1.03 6.505 1.03 6.505 -2 6 C-1.125 1.125 -1.125 1.125 0 0 Z " fill="#88839A" transform="translate(175,344)"/>
<path d="M0 0 C1.98 0 3.96 0 6 0 C6 0.99 6 1.98 6 3 C5.34 3 4.68 3 4 3 C4 4.65 4 6.3 4 8 C2.68 7.67 1.36 7.34 0 7 C0 4.69 0 2.38 0 0 Z " fill="#261C47" transform="translate(261,344)"/>
<path d="M0 0 C0.66 0.33 1.32 0.66 2 1 C2 2.32 2 3.64 2 5 C2.99 5.33 3.98 5.66 5 6 C5 4.02 5 2.04 5 0 C5.33 0 5.66 0 6 0 C6 1.98 6 3.96 6 6 C6.66 6.33 7.32 6.66 8 7 C1.84765625 7.09765625 1.84765625 7.09765625 0 7 C-1 6 -1 6 -1.125 3.5 C-1 1 -1 1 0 0 Z " fill="#130837" transform="translate(324,345)"/>
<path d="M0 0 C0.33 0.66 0.66 1.32 1 2 C2.32 2 3.64 2 5 2 C5 2.66 5 3.32 5 4 C4.01 4 3.02 4 2 4 C2.33 5.32 2.66 6.64 3 8 C1.35 8 -0.3 8 -2 8 C-1.34 7.67 -0.68 7.34 0 7 C0 4.69 0 2.38 0 0 Z " fill="#30274F" transform="translate(141,344)"/>
<path d="M0 0 C0.99 0.33 1.98 0.66 3 1 C3.042721 2.66611905 3.04063832 4.33382885 3 6 C2 7 2 7 -1.0625 7.0625 C-2.5165625 7.0315625 -2.5165625 7.0315625 -4 7 C-3.67 6.01 -3.34 5.02 -3 4 C-2.01 4.33 -1.02 4.66 0 5 C0 3.35 0 1.7 0 0 Z " fill="#201642" transform="translate(316,345)"/>
<path d="M0 0 C0.99 0.33 1.98 0.66 3 1 C3.042721 2.66611905 3.04063832 4.33382885 3 6 C2 7 2 7 -1.0625 7.0625 C-2.5165625 7.0315625 -2.5165625 7.0315625 -4 7 C-3.67 6.01 -3.34 5.02 -3 4 C-2.01 4.33 -1.02 4.66 0 5 C0 3.35 0 1.7 0 0 Z " fill="#201642" transform="translate(155,345)"/>
<path d="M0 0 C0.33 0.66 0.66 1.32 1 2 C2.98 2 4.96 2 7 2 C5.68 2.33 4.36 2.66 3 3 C3 3.66 3 4.32 3 5 C4.32 4.67 5.64 4.34 7 4 C7 4.66 7 5.32 7 6 C5.02 6 3.04 6 1 6 C0.67 4.02 0.34 2.04 0 0 Z " fill="#393057" transform="translate(342,346)"/>
<path d="M0 0 C0.99 0 1.98 0 3 0 C3.33 2.64 3.66 5.28 4 8 C2.68 7.67 1.36 7.34 0 7 C0 4.69 0 2.38 0 0 Z " fill="#241B45" transform="translate(335,344)"/>
<path d="M0 0 C2.475 0.495 2.475 0.495 5 1 C5 2.32 5 3.64 5 5 C3.68 4.67 2.36 4.34 1 4 C0.67 2.68 0.34 1.36 0 0 Z " fill="#635C7B" transform="translate(229,344)"/>
<path d="M0 0 C0.66 0.33 1.32 0.66 2 1 C2 2.98 2 4.96 2 7 C1.01 7 0.02 7 -1 7 C-0.67 4.69 -0.34 2.38 0 0 Z " fill="#EF833A" transform="translate(174,180)"/>
</svg>
